<?xml version='1.0' encoding='utf-8'?>
<svg xmlns="http://www.w3.org/2000/svg" version="1.1" width="1139px" height="813px" viewBox="-143 496 1139 813"> <g id="layer1"> <g style="fill:rgb(0,174,199); fill-opacity:1.0; stroke-linejoin: miter"> <path d="M-143.001,495.33557C-143.17696,495.33557,-143.34569,495.40546,-143.47011,495.52988C-143.59453,495.6543,-143.66441,495.82306,-143.66441,495.999L-143.6634,1309.0C-143.6634,1309.3663,-143.3664,1309.6635,-143.0,1309.6635L996.001,1309.6644C996.17694,1309.6644,996.3457,1309.5945,996.4701,1309.4701C996.5945,1309.3457,996.66437,1309.1769,996.66437,1309.001L996.6634,496.0C996.6634,495.6336,996.3664,495.33658,996.0,495.33658L-143.001,495.33557 Z"/> </g> <g style="fill:rgb(103,118,120); fill-opacity:0.99607843; stroke-linejoin: miter"> <path d="M736.17993,1119.5872L736.2041,1119.5967L740.4842,1123.9297L740.48456,1123.9304L744.309,1127.844L744.28503,1127.9014L656.7705,1127.2751L656.7698,1127.2744L568.7141,1126.5941L568.682,1126.5692L567.83777,1123.4767L567.83777,1123.4772L567.83673,1123.4735C567.41046,1121.9652,567.1705,1120.7064,567.14575,1120.2272L567.1499,1120.2277L567.16815,1120.2489L567.17285,1120.1862C569.4491,1120.0182,589.2492,1119.9056,613.0499,1119.8196L613.0536,1119.8203L613.0539,1119.8191L616.24194,1119.8135L616.96533,1119.8125L617.6998,1119.811C642.85004,1119.7686,677.5409,1119.7095,697.6419,1119.6467L697.64496,1119.647L697.64514,1119.646L736.17993,1119.5872 Z"/> </g> <g style="fill:rgb(103,118,120); fill-opacity:0.99607843; stroke-linejoin: miter"> <path d="M512.8979,1118.861L512.89923,1118.8617C513.3137,1118.8763,514.2116,1118.912,515.61145,1118.9689L515.6123,1118.9681L520.9833,1119.1857L531.3403,1119.6046L531.34125,1119.6039C540.6616,1119.9784,548.4051,1120.3434,549.5432,1120.4672L549.5394,1120.5365L549.5436,1120.5367C549.54443,1120.5392,549.54535,1120.5411,549.54614,1120.5431L549.54614,1120.5438L549.5779,1120.4965C549.7464,1120.9049,550.18384,1122.224,550.63495,1123.7762L550.63495,1123.7765L551.4718,1126.6866L551.4261,1126.7467L512.6455,1126.5133L512.59875,1126.4655L512.62177,1122.6344C512.633,1120.7985,512.7381,1119.3707,512.84705,1118.8976L512.8934,1118.861 Z"/> </g> <g style="fill:rgb(0,0,0); fill-opacity:0.99607843; stroke-linejoin: miter"> <path d="M708.8085,1122.0332L708.80817,1122.0344L708.8086,1122.0337L708.8085,1122.0332 Z"/> </g> <g style="fill:rgb(255,255,255); fill-opacity:0.99607843; stroke-linejoin: miter"> <path d="M835.33264,1092.7805L835.33264,1092.7805Q835.33264,1092.7815,835.33264,1092.7805 Z"/> </g> <g style="fill:rgb(255,255,255); fill-opacity:1.0; stroke-linejoin: miter"> <path d="M739.0751,1172.6912L739.0751,1172.6914L739.0751,1172.6912 Z"/> </g> <g style="fill:rgb(34,43,50); fill-opacity:1.0; stroke-linejoin: miter"> <path d="M808.5908,825.77795L808.5939,825.77924L808.5939,825.7783L808.5939,825.77795L808.5908,825.77924 Z M512.62634,1118.8922C512.6522,1118.899,512.6751,1118.9008,512.6959,1118.9008L512.6965,1118.9012L512.63086,1118.8922 Z M566.9851,1120.2408C566.9729,1120.2428,566.9677,1120.2443,566.9677,1120.2448L566.96985,1120.2455C566.97314,1120.2448,566.9798,1120.2438,566.98895,1120.2408 Z M549.6603,1120.5311C549.66565,1120.5326,549.6699,1120.5336,549.672,1120.5338L549.67346,1120.534C549.67346,1120.5336,549.67053,1120.5323,549.6648,1120.5311 Z M736.17993,1119.6206L697.64514,1119.6797L697.6459,1119.6802C677.141,1119.7437,641.5101,1119.8042,616.2421,1119.8474L613.054,1119.8528L613.05444,1119.854C589.2487,1119.9398,569.4522,1120.0519,567.17523,1120.2201L567.1792,1120.2208C567.2021,1120.6923,567.44165,1121.9513,567.8697,1123.464L567.8706,1123.4669L568.71454,1126.5604L656.77075,1127.2405L656.7706,1127.2407L744.2853,1127.8682L740.4603,1123.9534L736.17993,1119.6206 Z M512.8929,1118.9081C512.78564,1119.3756,512.68024,1120.7982,512.6691,1122.6344L512.64606,1126.4655L551.42615,1126.6998L550.58954,1123.7892C550.1382,1122.2372,549.70056,1120.9174,549.534,1120.5133L549.538,1120.5135C548.40155,1120.3905,540.66174,1120.0255,531.3392,1119.6512L531.3392,1119.6515L520.9814,1119.2323L515.61053,1119.015L515.61053,1119.0155C514.235,1118.9598,513.2868,1118.9225,512.89777,1118.9083 Z M809.77466,1163.0891L809.7766,1163.0894L809.7785,1163.0891L809.77466,1163.0894 Z M805.6028,825.7108C805.60443,825.7106,805.6063,825.7106,805.6083,825.7108L808.5939,825.77795L808.5939,825.7783L808.5995,825.77795C810.22626,825.83716,815.4103,826.16205,820.1115,826.534L820.11163,826.534L820.1347,826.5353L820.1347,826.536L820.1583,826.5376L820.1583,826.53784C828.7086,827.1756,828.8159,827.19293,846.42847,832.138L846.42847,832.13824C862.5456,836.5952,864.44086,837.12335,864.1515,838.4574L864.1466,838.4755L864.14703,838.4763C863.8797,839.7343,852.4983,908.52185,838.7475,991.9993L833.6125,1023.18384L829.6557,1047.2168C812.24274,1152.9644,810.7327,1162.0432,810.18506,1162.8723L810.18506,1162.8726C810.0846,1163.0247,809.9541,1163.0806,809.8279,1163.0881L809.8293,1163.0884C809.7255,1163.2046,809.56335,1163.6838,809.55914,1164.3787L809.5506,1165.7993C809.5501,1165.8875,809.5148,1165.971,809.45233,1166.0322C809.3901,1166.094,809.3057,1166.1282,809.2181,1166.1279L483.8416,1164.1552C483.66302,1164.1539,483.51752,1164.0111,483.51343,1163.8322L483.28253,1153.4547C483.12134,1147.7716,483.0431,1136.4066,483.09235,1128.2316L483.18225,1113.4C483.18335,1113.2181,483.33228,1113.0709,483.51477,1113.0717L755.841,1114.721L755.8526,1112.7996L755.86597,1110.5479C755.8671,1110.4272,755.9332,1110.3167,756.0399,1110.2593C756.0894,1110.2324,756.1439,1110.2195,756.19824,1110.2195C756.26056,1110.2197,756.32227,1110.238,756.37616,1110.273L757.5952,1111.0632L757.6042,1111.0693C757.95074,1111.3108,758.18616,1111.4207,758.31964,1111.4597L758.31964,1111.4607C758.8555,1107.2192,777.9422,991.8572,778.4334,989.85974L778.4329,989.86C778.4315,989.85974,778.4473,989.796,778.4877,989.7348L778.4869,989.73505C778.5751,989.6041,778.7267,989.5785,778.7347,989.57733L778.73456,989.5778C778.8655,989.54834,779.11127,989.542,779.40295,989.5439C780.7345,989.5522,783.93866,989.7492,787.5948,990.03516L787.59595,990.0361C791.09467,990.2812,793.2114,990.4147,794.5808,990.4223C796.196,990.4325,796.7021,990.26636,797.17896,989.95197L797.1862,989.94775C798.3734,989.2102,798.93,987.6128,798.4895,986.1729L798.4889,986.17053C798.0447,984.68585,795.9636,984.0463,787.64557,983.59717L787.64624,983.5976C783.13477,983.39465,780.38226,983.0887,779.84955,982.6986L779.8494,982.699C779.78143,982.6491,779.6497,982.53143,779.6511,982.3375C779.6511,982.31903,779.6531,982.3014,779.6533,982.2987L779.6532,982.29834C779.7235,981.5836,785.44666,946.4173,792.4666,903.84283L792.4666,903.8433L805.2747,825.98773C805.3013,825.82697,805.4404,825.7097,805.6028,825.7108 Z"/> </g> <g style="fill:rgb(34,43,50); fill-opacity:0.99607843; stroke-linejoin: miter"> <path d="M788.8092,958.7071L785.06445,958.4256L781.31964,958.14374Q779.58417,981.19666,777.8484,1004.2489Q781.5933,1004.531,785.3381,1004.81354Q787.0738,981.76086,788.8092,958.7071 Z"/> </g> <g style="fill:rgb(68,197,229); fill-opacity:0.99607843; stroke-linejoin: miter"> <path d="M844.4912,846.4688L826.24615,840.7529L808.0013,835.0369L765.1001,1106.512Q780.78906,1122.1079,796.4779,1137.7041L844.4912,846.4688 Z"/> </g> <g style="fill:rgb(103,118,120); fill-opacity:0.99607843; stroke-linejoin: miter"> <path d="M135.80867,1119.5864L135.78468,1119.5967L131.50427,1123.9292L131.50415,1123.9302L127.679306,1127.8435L127.703735,1127.9011L215.21815,1127.2751L215.21873,1127.2742L303.27448,1126.5944L303.3067,1126.5692L304.15082,1123.4767L304.15082,1123.4774L304.15155,1123.4735C304.57806,1121.9655,304.81824,1120.7064,304.84283,1120.2269L304.8388,1120.2277L304.82056,1120.2491L304.81592,1120.1862C302.5395,1120.018,282.73938,1119.9056,258.93878,1119.8197L258.93524,1119.8207L258.9348,1119.819L255.74669,1119.8138L255.02336,1119.8126L254.2888,1119.8109C229.1388,1119.7683,194.44771,1119.7095,174.34666,1119.6467L174.34386,1119.647L174.34329,1119.6458L135.80867,1119.5864 Z"/> </g> <g style="fill:rgb(103,118,120); fill-opacity:0.99607843; stroke-linejoin: miter"> <path d="M359.09064,1118.861L359.08942,1118.8619C358.675,1118.8763,357.77728,1118.912,356.37726,1118.9689L356.37634,1118.9679L351.00543,1119.1852L340.64838,1119.6046L340.64746,1119.6041C331.32697,1119.9786,323.5833,1120.3434,322.4452,1120.4672L322.44904,1120.5365L322.445,1120.537C322.44403,1120.5392,322.44342,1120.5411,322.44226,1120.5433L322.44226,1120.5438L322.41058,1120.4965C322.24213,1120.9052,321.8047,1122.2245,321.35358,1123.7765L321.35358,1123.7777L320.51678,1126.6866L320.56244,1126.7472L359.34302,1126.5138L359.38995,1126.4655L359.36688,1122.6344C359.35565,1120.7985,359.2505,1119.3707,359.14166,1118.8978L359.09515,1118.861 Z"/> </g> <g style="fill:rgb(0,0,0); fill-opacity:0.99607843; stroke-linejoin: miter"> <path d="M163.18024,1122.0332L163.18024,1122.0342L163.18001,1122.0337L163.18024,1122.0332 Z"/> </g> <g style="fill:rgb(255,255,255); fill-opacity:0.99607843; stroke-linejoin: miter"> <path d="M108.55695,1077.1997L108.55702,1077.2002Q108.55702,1077.2004,108.55695,1077.1997 Z"/> </g> <g style="fill:rgb(255,255,255); fill-opacity:1.0; stroke-linejoin: miter"> <path d="M132.91344,1172.6907L132.91344,1172.6912L132.91344,1172.6907 Z"/> </g> <g style="fill:rgb(60,70,79); fill-opacity:0.99607843; stroke-linejoin: miter"> <path d="M60.168945,825.96185L60.168945,825.96234L60.168945,825.9626L60.168945,825.96234L60.168945,825.96185L60.168945,825.96234L60.168945,825.9626Q60.168945,825.96234,60.168945,825.96185 Z"/> </g> <g style="fill:rgb(60,70,79); fill-opacity:0.99607843; stroke-linejoin: miter"> <path d="M67.561516,817.1655L67.561516,817.16705L67.56164,817.1659L67.561516,817.1655L67.561516,817.16705L67.561516,817.1655L67.56164,817.1659Q67.561516,817.1655,67.561516,817.1655 Z"/> </g> <g style="fill:rgb(34,43,50); fill-opacity:1.0; stroke-linejoin: miter"> <path d="M63.398438,825.77747L63.39569,825.7777L63.39569,825.7783L63.39569,825.7777L63.398438,825.77747 Z M359.36212,1118.892C359.3365,1118.899,359.31342,1118.9008,359.29272,1118.901L359.29218,1118.9012L359.35754,1118.892 Z M305.00348,1120.2406C305.01575,1120.243,305.02087,1120.2443,305.02087,1120.245L305.0188,1120.2455C305.01538,1120.2448,305.0086,1120.2438,304.9995,1120.2406 Z M322.32825,1120.5311C322.32263,1120.5326,322.31866,1120.5338,322.31665,1120.5338L322.3153,1120.5343C322.3153,1120.5338,322.31793,1120.5326,322.32385,1120.5311 Z M135.80867,1119.6204L174.34315,1119.6794L174.34271,1119.6799C194.84755,1119.7437,230.4786,1119.8044,255.74657,1119.8475L258.93475,1119.8527L258.9342,1119.8531C282.7398,1119.9398,302.53656,1120.0516,304.81335,1120.2196L304.80927,1120.2206C304.78656,1120.6923,304.547,1121.9513,304.1189,1123.4647L304.1181,1123.4674L303.27405,1126.5604L215.21771,1127.2405L215.2181,1127.2407L127.703384,1127.8672L131.52823,1123.9529L135.80867,1119.6204 Z M359.0957,1118.9083C359.20294,1119.3759,359.30835,1120.7982,359.31958,1122.6344L359.34253,1126.4655L320.56213,1126.6998L321.39905,1123.7892C321.85022,1122.2374,322.2879,1120.9174,322.45465,1120.5133L322.45038,1120.5135C323.5869,1120.3905,331.32684,1120.0258,340.64954,1119.6512L340.64954,1119.6515L351.0074,1119.2323L356.37823,1119.0153L356.37823,1119.0155C357.7536,1118.9598,358.70166,1118.9225,359.09088,1118.9083 Z M62.213844,1163.0884L62.21212,1163.0889L62.210205,1163.0884L62.213844,1163.0889 Z M66.38679,825.71045C66.38503,825.71045,66.38318,825.71045,66.38133,825.7106L63.39569,825.7777L63.39569,825.7783L63.389885,825.7777C61.763,825.8369,56.578705,826.1623,51.877754,826.53375L51.877754,826.534L51.854687,826.53516L51.854687,826.53577L51.83105,826.5373L51.831146,826.53784C43.280533,827.1749,43.173317,827.1928,25.560768,832.1379L25.560768,832.138C9.443863,836.595,7.548667,837.1231,7.8379717,838.4574L7.84266,838.4754L7.842309,838.47577C8.109952,839.7342,19.490816,908.52155,33.24152,991.9988L38.376183,1023.18365L42.333252,1047.2168C59.74607,1152.9636,61.255753,1162.0427,61.803543,1162.8721L61.803543,1162.8726C61.90412,1163.0247,62.03469,1163.0801,62.16095,1163.0881L62.159195,1163.0884C62.26294,1163.2043,62.425247,1163.6836,62.42933,1164.3787L62.438034,1165.7993C62.438614,1165.8867,62.473892,1165.9705,62.536324,1166.032C62.598495,1166.0938,62.682716,1166.1279,62.77041,1166.1272L388.14697,1164.1554C388.32562,1164.1539,388.4712,1164.0111,388.47522,1163.8322L388.70612,1153.4552C388.8673,1147.7716,388.94556,1136.4069,388.89624,1128.2316L388.8064,1113.4008C388.80518,1113.2181,388.65637,1113.0709,388.47388,1113.0717L116.14768,1114.721L116.1361,1112.7993L116.122475,1110.5476C116.12168,1110.4272,116.05517,1110.3167,115.949005,1110.259C115.89924,1110.2324,115.84466,1110.2195,115.79018,1110.2195C115.72813,1110.2197,115.666336,1110.2378,115.61243,1110.2727L114.39339,1111.0632L114.38449,1111.0696C114.03786,1111.3105,113.8026,1111.4204,113.66897,1111.4597L113.66909,1111.4604C113.13302,1107.219,94.04681,991.8569,93.55551,989.8594L93.556114,989.8597C93.55752,989.8594,93.541664,989.7957,93.50118,989.7345L93.502144,989.735C93.41384,989.6037,93.262245,989.5783,93.25385,989.5773L93.25398,989.5775C93.12332,989.54803,92.87759,989.54193,92.58618,989.5438C91.25457,989.5519,88.050186,989.74866,84.393845,990.03485L84.39301,990.03546C80.894516,990.28076,78.77736,990.41394,77.407974,990.4221C75.79277,990.43195,75.286736,990.2658,74.80989,989.9519L74.80252,989.9472C73.61545,989.2099,73.05895,987.61224,73.49946,986.1725L73.50007,986.1705C73.943924,984.6854,76.02532,984.0458,84.343315,983.5966L84.34258,983.5971C88.85395,983.3945,91.60627,983.0885,92.13929,982.69855L92.13939,982.69867C92.20762,982.6488,92.33911,982.53125,92.3379,982.33746C92.33781,982.31866,92.33599,982.30133,92.33573,982.2984L92.33576,982.2983C92.26543,981.5833,86.54252,946.4169,79.52232,903.8427L79.52232,903.8431L66.71469,825.98737C66.68825,825.8266,66.548996,825.7093,66.38679,825.71045 Z"/> </g> <g style="fill:rgb(34,43,50); fill-opacity:0.99607843; stroke-linejoin: miter"> <path d="M83.17975,958.7068L86.92446,958.4253L90.66939,958.14343Q92.40479,981.1963,94.140465,1004.24884Q90.39572,1004.53046,86.65092,1004.81323Q84.91522,981.7602,83.17975,958.7068 Z"/> </g> <g style="fill:rgb(68,197,229); fill-opacity:0.99607843; stroke-linejoin: miter"> <path d="M27.498169,846.4688L45.74311,840.7527L63.988045,835.0369L106.88838,1106.512Q91.1996,1122.1082,75.510765,1137.7031L27.498169,846.4688 Z"/> </g> <g style="fill:rgb(0,0,0); fill-opacity:0.19215687; stroke-linejoin: miter"> <path d="M902.541,1157.2483L898.34076,1160.7339Q868.4806,1171.2693,723.5981,1177.5859Q577.7129,1183.8966,380.01917,1182.7042Q191.34624,1181.0366,78.22643,1172.9465Q41.981583,1170.3315,18.517155,1167.2473L-1.2041607,1164.0776Q-17.456354,1160.8049,-17.639015,1157.248Q-12.70532,1146.331,117.11806,1139.0818Q246.94168,1131.8329,442.45068,1131.5575Q637.96014,1131.8328,767.7836,1139.082Q897.6072,1146.3313,902.541,1157.2483 Z"/> </g> <g style="fill:rgb(0,0,0); fill-opacity:1.0; stroke-linejoin: miter"> <path d="M725.02527,912.53296L725.0252,912.5331L725.02515,912.53314L725.02527,912.53296"/> </g> <g style="fill:rgb(0,0,0); fill-opacity:1.0; stroke-linejoin: miter"> <path d="M764.11053,1137.888L764.11053,1137.8882L764.1106,1137.8884L764.11053,1137.888"/> </g> <g style="fill:rgb(36,36,36); fill-opacity:1.0; stroke-linejoin: miter"> <path d="M339.98773,751.09045L434.9389,751.2699L529.89014,751.44934Q529.6482,879.4821,529.4061,1007.51495Q434.45477,1007.3362,339.50348,1007.1563Q339.7456,879.1233,339.98773,751.09045 Z"/> </g> <g style="fill:rgb(255,255,255); fill-opacity:1.0; stroke-linejoin: miter"> <path d="M350.0747,762.0067L434.91833,762.1672L519.762,762.32654Q519.5413,878.97186,519.32104,995.61755Q434.4771,995.45746,349.63348,995.29785Q349.85394,878.65137,350.0747,762.0067 Z"/> </g> <g style="fill:rgb(125,139,150); fill-opacity:1.0; stroke-linejoin: miter"> <path d="M380.0771,928.9525L434.6026,929.05505L489.12854,929.1584Q489.1203,933.61523,489.11163,938.07196Q434.58575,937.9695,380.06024,937.867Q380.0688,933.4095,380.0771,928.9525 Z"/> </g> <g style="fill:rgb(125,139,150); fill-opacity:1.0; stroke-linejoin: miter"> <path d="M391.58307,942.43L434.5772,942.5116L477.57147,942.592Q477.563,947.0487,477.55475,951.5065Q434.56036,951.42554,391.56628,951.34485Q391.57477,946.88684,391.58307,942.43 Z"/> </g> <g style="fill:rgb(125,139,150); fill-opacity:1.0; stroke-linejoin: miter"> <path d="M378.96265,955.8615L434.55194,955.96674L490.1413,956.072Q490.1328,960.52844,490.1242,964.98584Q434.53516,964.8813,378.94568,964.7757Q378.95416,960.3187,378.96265,955.8615 Z"/> </g> <g style="fill:rgb(125,139,150); fill-opacity:1.0; stroke-linejoin: miter"> <path d="M398.64392,969.3549L470.40936,969.49054L470.39227,978.4037L398.62677,978.26904L398.64392,969.3549 Z"/> </g> <g style="fill:rgb(125,139,150); fill-opacity:1.0; stroke-linejoin: miter"> <path d="M380.1764,876.3187L434.70227,876.4214L489.22815,876.5246Q489.2196,880.9812,489.21124,885.43854Q434.68542,885.3357,380.15955,885.23315Q380.1681,880.7765,380.1764,876.3187 Z"/> </g> <g style="fill:rgb(125,139,150); fill-opacity:1.0; stroke-linejoin: miter"> <path d="M391.68262,889.79596L434.6767,889.87714L477.67102,889.95807Q477.66248,894.4155,477.65393,898.87225Q434.6598,898.7914,391.6656,898.71063Q391.67407,894.2534,391.68262,889.79596 Z"/> </g> <g style="fill:rgb(125,139,150); fill-opacity:1.0; stroke-linejoin: miter"> <path d="M379.0619,903.2277L434.65143,903.33295L490.2409,903.43884Q490.23248,907.8954,490.22394,912.35236Q434.63464,912.2471,379.04517,912.14197Q379.0536,907.6854,379.0619,903.2277 Z"/> </g> <g style="fill:rgb(125,139,150); fill-opacity:1.0; stroke-linejoin: miter"> <path d="M398.74304,916.72095L470.50885,916.85693L470.492,925.7701L398.7262,925.6357L398.74304,916.72095 Z"/> </g> <g style="fill:rgb(125,139,150); fill-opacity:1.0; stroke-linejoin: miter"> <path d="M398.8446,863.00104L470.6103,863.1372L470.59308,872.05005L398.82788,871.91583L398.8446,863.00104 Z"/> </g> <g style="fill:rgb(125,139,150); fill-opacity:1.0; stroke-linejoin: miter"> <path d="M379.16364,849.5081L434.7528,849.61316L490.34222,849.7187Q490.3338,854.1748,490.32532,858.63226Q434.73608,858.5275,379.1466,858.4223Q379.1551,853.9651,379.16364,849.5081 Z"/> </g> <g style="fill:rgb(125,139,150); fill-opacity:1.0; stroke-linejoin: miter"> <path d="M380.27814,822.5989L434.80377,822.7025L489.32953,822.8049Q489.32092,827.26105,489.31262,831.71893Q434.7868,831.61597,380.2614,831.51355Q380.2696,827.05597,380.27814,822.5989 Z"/> </g> <g style="fill:rgb(125,139,150); fill-opacity:1.0; stroke-linejoin: miter"> <path d="M391.78424,836.0766L434.7782,836.15765L477.77258,836.2383Q477.76404,840.695,477.75555,845.1524Q434.76135,845.0716,391.7674,844.9914Q391.77582,840.53357,391.78424,836.0766 Z"/> </g> <g style="fill:rgb(0,0,0); fill-opacity:1.0; stroke-linejoin: miter"> <path d="M371.15454,800.68896L434.8451,800.8091L498.5359,800.92993Q498.5335,802.0857,498.5315,803.24176Q434.84064,803.1218,371.1502,803.0017Q371.15222,801.8455,371.15454,800.68896 Z"/> </g> <g style="fill:rgb(34,43,50); fill-opacity:1.0; stroke-linejoin: miter"> <path d="M475.326,981.25073L494.74042,981.28815L514.1554,981.3242Q514.1527,982.80145,514.1499,984.27795Q494.7353,984.24194,475.3205,984.2053Q475.32324,982.72833,475.326,981.25073 Z"/> </g> <g style="fill:rgb(0,0,0); fill-opacity:1.0; stroke-linejoin: miter"> <path d="M385.0581,735.61194L434.96826,735.7062L484.8783,735.8007Q484.85126,750.28076,484.8238,764.7604Q434.9135,764.6664,385.00336,764.57227Q385.03064,750.0922,385.0581,735.61194 Z"/> </g> <g style="fill:rgb(0,0,0); fill-opacity:1.0; stroke-linejoin: miter"> <path d="M519.2825,1022.43726L519.28253,1022.4376L519.2825,1022.4379L519.2825,1022.43726 Z"/> </g> <g style="fill:rgb(0,0,0); fill-opacity:1.0; stroke-linejoin: miter"> <path d="M457.13684,791.6938Q457.55762,791.6945,458.16284,791.7482Q458.76813,791.8019,459.16272,791.8557L459.15472,796.1446Q458.65436,796.27515,457.99646,796.35284Q457.3647,796.4044,456.75952,796.4034Q456.28583,796.4025,455.75977,796.34894Q455.23352,796.2953,454.78674,796.0575Q454.36597,795.8199,454.07733,795.3719Q453.78857,794.92413,453.79022,794.1344Q453.79266,792.8981,454.6621,792.2945Q455.5053,791.69073,457.13684,791.6938 Z M407.91193,786.4173Q409.72754,786.4206,410.59338,787.738Q411.4594,789.02875,411.45496,791.37085Q411.4505,793.71246,410.5796,795.0268Q409.70886,796.3412,407.89325,796.33777Q406.07733,796.33405,405.21155,795.01654Q404.37183,793.69946,404.3764,791.3577Q404.38074,789.0154,405.25165,787.7015Q406.09607,786.4136,407.91193,786.4173 Z M424.38885,784.31665Q423.57306,784.3151,422.88824,784.55066Q422.2038,784.75995,421.67706,785.1277Q421.14996,785.4685,420.7281,785.915Q420.33246,786.36145,420.0686,786.8085Q420.0694,786.3612,419.9917,785.67676Q419.91412,785.01843,419.83563,784.6238Q419.5464,784.57086,419.2832,784.54376Q419.04657,784.5171,418.75714,784.51636Q418.4676,784.51556,418.17792,784.54175Q417.91486,784.5676,417.62506,784.6193L417.59985,798.119Q417.88922,798.17206,418.25763,798.1991Q418.62585,798.2261,418.91553,798.2267Q419.2049,798.2273,419.57336,798.2014Q419.91565,798.176,420.20508,798.12384L420.21796,791.28186Q420.2201,790.04504,420.53772,789.1512Q420.82898,788.28326,421.32983,787.7316Q421.831,787.1804,422.48926,786.9179Q423.14752,786.65607,423.88428,786.6575Q425.14758,786.6603,425.72467,787.5559Q426.30206,788.4254,426.2984,790.29346L426.28387,798.13495Q426.57324,798.1884,426.94153,798.21533Q427.28345,798.2425,427.57288,798.2426Q427.86243,798.2435,428.23077,798.21765Q428.5993,798.1921,428.8888,798.1401L428.90497,789.58795Q428.90985,786.98315,427.807,785.639Q426.70447,784.3211,424.38885,784.31665 Z M443.36145,784.56305Q443.0719,784.56256,442.80878,784.58844Q442.54523,784.6141,442.25574,784.6659L442.2304,798.16504Q442.54614,798.2184,442.91437,798.2453Q443.25647,798.27264,443.54602,798.2734Q443.8354,798.2736,444.20392,798.248Q444.54608,798.22235,444.83563,798.17004L444.84814,791.4599Q444.85095,790.0916,445.1681,789.2238Q445.45917,788.35614,445.9864,787.8572Q446.4875,787.35815,447.14575,787.14886Q447.77765,786.9659,448.48804,786.9673L448.85657,786.96857Q449.06702,786.9683,449.27734,787.0214Q449.3307,786.7053,449.3839,786.36334Q449.41083,786.0219,449.41138,785.7059Q449.412,785.41644,449.38605,785.1531Q449.36023,784.88983,449.30823,784.6529Q449.15033,784.6266,448.9137,784.5999L448.49255,784.59955Q447.07166,784.5964,446.14948,785.2525Q445.2533,785.90845,444.6989,786.8023Q444.7,786.3549,444.62225,785.69714Q444.5445,785.0652,444.46637,784.6701Q444.22955,784.61743,443.94025,784.59064Q443.65076,784.5632,443.36145,784.56305 Z M435.70984,781.3119L431.1742,786.35583L431.2787,786.7245L433.33124,786.7288L433.3169,794.3856Q433.31274,796.51733,434.39008,797.44Q435.44086,798.36285,437.3355,798.36664Q437.99335,798.3678,438.5724,798.2902Q439.15137,798.2384,439.67792,798.10736Q439.67865,797.6867,439.62708,797.13416Q439.6018,796.5811,439.4187,796.05457Q439.10254,796.133,438.70782,796.2111Q438.31305,796.2632,437.86578,796.2624Q437.28687,796.26086,436.89233,796.1292Q436.52405,796.02277,436.28796,795.6539Q436.07806,795.3115,435.97412,794.6536Q435.89642,793.99567,435.89844,792.89026L435.90997,786.7328L439.33093,786.7397Q439.38403,786.47656,439.41077,786.2132Q439.43774,785.9501,439.4383,785.6611Q439.4394,785.1079,439.3349,784.6605L435.91388,784.65466L435.92023,781.31226 Z M481.10272,781.39777L476.56683,786.44147L476.67175,786.8099L478.72412,786.8141L478.70966,794.47125Q478.70575,796.60284,479.7829,797.52563Q480.83374,798.4487,482.7284,798.45215Q483.38635,798.4538,483.96533,798.37573Q484.54425,798.3243,485.07086,798.19336Q485.0716,797.77216,485.01996,797.2198Q484.9948,796.6674,484.81158,796.14Q484.49536,796.21875,484.10046,796.2969Q483.70605,796.34906,483.25854,796.34814Q482.67975,796.347,482.28503,796.21466Q481.9168,796.10864,481.68073,795.73987Q481.4707,795.39716,481.36688,794.7391Q481.28925,794.0813,481.2912,792.97614L481.30286,786.81866L484.72375,786.8257Q484.77686,786.56177,484.8039,786.2991Q484.83038,786.0356,484.83093,785.74615Q484.8322,785.1939,484.72772,784.74603L481.30664,784.7403L481.313,781.39777 Z M395.6797,784.26245Q394.04822,784.2593,392.8105,784.80963Q391.57233,785.35986,390.72852,786.3057Q389.91107,787.25165,389.4876,788.54016Q389.06427,789.82855,389.0614,791.3285Q389.05518,794.56525,390.7619,796.48956Q392.4688,798.38715,395.83722,798.3935Q397.83698,798.3976,399.3908,797.79535Q399.36554,797.21625,399.2088,796.66364Q399.0517,796.11035,398.8421,795.7417Q398.1573,796.0033,397.47296,796.1072Q396.81488,796.21155,396.02533,796.2098Q394.05182,796.2062,392.92255,795.02014Q391.79315,793.85986,391.79785,791.33325Q391.802,789.1233,392.8047,787.7834Q393.80713,786.44305,395.8333,786.447Q397.49127,786.4501,398.7798,786.89984Q398.9912,786.4531,399.1239,785.8482Q399.2301,785.2694,399.23114,784.822Q398.46863,784.53094,397.62677,784.3976Q396.78485,784.2645,395.6797,784.26245 Z M407.9159,784.2857Q406.3369,784.2829,405.1518,784.833Q403.96667,785.3835,403.17535,786.3292Q402.38397,787.275,401.98682,788.56366Q401.61615,789.8524,401.61322,791.352Q401.61035,792.8519,402.00262,794.1422Q402.36865,795.43256,403.15637,796.3811Q403.9441,797.32996,405.12726,797.885Q406.31024,798.4133,407.88934,798.4164Q409.4682,798.41956,410.65338,797.8691Q411.8385,797.3449,412.62964,796.3991Q413.42078,795.45306,413.81793,794.1643Q414.18878,792.8757,414.1916,791.3756Q414.19434,789.8759,413.80225,788.5861Q413.43628,787.29584,412.6485,786.3472Q411.86084,785.398,410.67786,784.84344Q409.4948,784.28876,407.9159,784.2857 Z M456.36127,784.37714Q455.36115,784.37537,454.2821,784.53076Q453.20264,784.6868,452.3075,784.97455Q452.30505,786.18475,452.80334,787.0541Q453.56726,786.81915,454.38336,786.6625Q455.1729,786.53284,456.09393,786.53424Q457.59387,786.5373,458.3822,787.1438Q459.17047,787.75055,459.1676,789.30316L459.1667,789.8031Q458.7984,789.7495,458.24573,789.69604Q457.7196,789.66876,456.87738,789.6671Q455.74597,789.66516,454.71912,789.9524Q453.69232,790.21375,452.90173,790.7909Q452.11127,791.34235,451.63593,792.2093Q451.187,793.05054,451.18494,794.1826Q451.18256,795.33984,451.576,796.1566Q451.96912,796.9734,452.70483,797.5009Q453.41443,798.0285,454.4666,798.2675Q455.49243,798.5061,456.7818,798.5088Q458.1502,798.5112,459.46643,798.27673Q460.78253,798.06885,461.70392,797.86L461.71997,789.41315Q461.72473,786.7818,460.3587,785.5688Q458.9925,784.38196,456.36127,784.37714 Z M471.46564,784.4056Q469.83417,784.4025,468.59644,784.953Q467.35846,785.5031,466.5149,786.4487Q465.69745,787.39465,465.27368,788.68304Q464.8501,789.97144,464.8473,791.4716Q464.84125,794.70795,466.54816,796.63245Q468.25507,798.52997,471.62335,798.5366Q473.62335,798.5402,475.17694,797.9379Q475.1518,797.35913,474.99493,796.8057Q474.8379,796.2529,474.62805,795.8842Q473.94354,796.1463,473.25897,796.2503Q472.6012,796.35425,471.81158,796.3526Q469.83795,796.3492,468.7085,795.1627Q467.57928,794.00287,467.58423,791.4766Q467.58838,789.26605,468.59094,787.9262Q469.5932,786.5862,471.6195,786.58984Q473.27722,786.5928,474.56573,787.0425Q474.7771,786.59534,474.90985,785.99066Q475.01642,785.412,475.01715,784.96497Q474.2547,784.6741,473.41296,784.5406Q472.57092,784.4078,471.46564,784.4056 Z"/> </g> <g style="fill:rgb(36,36,36); fill-opacity:1.0; stroke-linejoin: miter"> <path d="M339.6314,886.4835L339.66296,882.96454L339.99237,832.2331Q344.9911,838.5584,349.98987,844.88385Q349.94385,866.42834,349.8979,887.97327L339.6314,886.4835"/> </g> <g style="fill:rgb(255,178,139); fill-opacity:1.0; stroke-linejoin: miter"> <path d="M505.9024,1079.0829L476.4051,1108.9508L441.0838,1123.5055L398.08435,1098.1825C398.95996,1079.4496,399.94397,1067.6361,400.6297,1062.6803C401.57086,1055.878,403.08112,1051.247,405.52612,1048.7963C406.2066,1048.1144,407.36755,1047.3912,409.05182,1046.6696L468.3728,1039.4552L505.9024,1079.0829 Z"/> </g> <g style="fill:rgb(255,193,161); fill-opacity:1.0; stroke-linejoin: miter"> <path d="M442.45056,1026.9727C443.79596,1026.4062,445.26355,1026.2627,446.69513,1026.057C449.19434,1025.7188,451.77673,1025.8174,454.19202,1026.5803C457.2984,1027.5723,460.5763,1027.708,463.774,1028.221C467.25946,1028.8472,470.7461,1029.4731,474.24316,1030.0339C478.3355,1030.6177,482.3764,1031.4993,486.42834,1032.3046C489.56824,1032.7433,492.7113,1031.9933,495.7506,1031.2717C497.2008,1030.9124,498.51642,1030.1877,499.79504,1029.4341C500.11285,1030.0173,500.20752,1030.6829,500.40515,1031.3096C500.7011,1032.2953,500.9173,1033.306,501.26428,1034.2762C502.21008,1036.4486,503.19495,1038.6061,504.00153,1040.8363C504.63843,1042.534,505.36157,1044.203,505.81927,1045.963C506.52478,1048.5824,507.57703,1051.0868,508.44336,1053.6527C510.14282,1059.8512,511.82922,1066.0531,513.5289,1072.2518C513.5705,1072.5033,513.7334,1072.7601,513.6719,1073.0175C512.84296,1073.5057,512.14325,1074.18,511.6054,1074.9762C510.96008,1075.9484,510.02893,1076.6674,509.23163,1077.5033C508.266,1078.4921,507.2406,1079.4215,506.15643,1080.2792C505.45667,1080.8353,504.90045,1081.6962,503.9878,1081.9012C503.3036,1081.434,502.75513,1080.7953,502.13123,1080.255C500.2348,1078.4835,498.36383,1076.6893,496.49518,1074.8898C495.651,1074.1036,494.85443,1073.2594,493.93182,1072.5599C491.7718,1070.8917,489.27844,1069.7513,486.90472,1068.4335C482.92706,1066.1669,479.10376,1063.6447,475.25,1061.1791C470.445,1058.121,465.55463,1055.2008,460.6817,1052.2523C458.51758,1050.9645,456.41998,1049.5695,454.22766,1048.3322C451.71277,1046.9147,449.0775,1045.628,446.2437,1045.0033C444.46857,1044.6193,442.60687,1044.5258,440.82678,1044.9232C439.0191,1045.35,437.25763,1045.9606,435.55652,1046.7008C429.5116,1049.3209,424.351,1053.5348,418.47266,1056.4681C416.24884,1057.5958,413.9535,1058.5787,411.62634,1059.4689C410.94232,1059.6642,410.21606,1059.5331,409.52917,1059.4218C408.85004,1059.274,408.10016,1059.1495,407.59534,1058.6283C407.18396,1058.2406,406.7572,1057.8615,406.4275,1057.3998C406.0199,1056.8287,406.00867,1056.0997,405.95227,1055.4293C405.93066,1055.0006,405.85284,1054.537,406.07837,1054.1461C406.4494,1053.4506,407.0229,1052.8917,407.59918,1052.3646C408.62555,1051.4579,409.74164,1050.66,410.87225,1049.889C411.88916,1049.1859,412.96143,1048.5397,413.82074,1047.6364C416.9074,1044.43,418.0158,1039.8524,421.10236,1036.6451C422.23083,1035.5043,423.72644,1034.8207,425.23608,1034.3424C428.85553,1033.181,432.50146,1032.0475,435.9419,1030.4111C438.14532,1029.3298,440.17297,1027.906,442.45056,1026.9727 Z"/> </g> <g style="fill:rgb(255,193,161); fill-opacity:1.0; stroke-linejoin: miter"> <path d="M399.08392,1046.8766C399.3982,1045.7374,399.456,1044.534,399.80774,1043.4054C401.56616,1043.8658,403.39032,1043.9799,405.1961,1044.101C408.37646,1044.3121,411.57227,1044.1263,414.72266,1043.6649C414.16052,1044.7142,413.44183,1045.6815,412.6162,1046.5367C411.86188,1047.3241,410.91528,1047.8759,410.03003,1048.495C408.5716,1049.5006,407.10577,1050.5211,405.85657,1051.7853C405.06555,1052.6139,404.2453,1053.6215,404.30188,1054.8356C404.364,1055.9315,404.35767,1057.1019,404.92926,1058.0797C405.37292,1058.8065,406.01288,1059.3832,406.63416,1059.9552C407.33636,1060.6193,408.32196,1060.8248,409.23798,1061.0177C410.26562,1061.1803,411.37225,1061.3629,412.35986,1060.9303C415.3988,1059.7521,418.38916,1058.4327,421.23706,1056.8414C426.63556,1053.8575,431.5661,1049.9923,437.34253,1047.716C437.97504,1047.5023,438.58734,1047.1566,439.27295,1047.1537C440.90588,1047.0863,442.6009,1046.6566,444.19324,1047.2252C447.33514,1048.1522,450.4535,1049.2977,453.18378,1051.1425C457.8902,1054.34,463.0285,1056.8114,468.03192,1059.4967C472.22693,1061.7299,476.20874,1064.3297,480.25458,1066.8151C482.9383,1068.476,485.6369,1070.1139,488.38348,1071.6715C490.61237,1072.891,492.76642,1074.2518,494.8084,1075.7706C496.5418,1077.0094,497.9574,1078.6178,499.52942,1080.0448C501.48242,1081.774,502.67133,1084.1637,503.61243,1086.5548C504.02777,1087.809,504.08984,1089.1449,504.13354,1090.4552C504.16632,1091.7579,503.68268,1092.9921,503.12897,1094.1469C502.56885,1095.4242,501.75922,1096.6083,500.70148,1097.5258C500.30835,1097.8431,499.82782,1098.224,499.28882,1098.0702C496.6272,1097.5619,494.00287,1096.8114,491.51373,1095.7357C487.1941,1093.6542,483.7798,1090.1827,479.7428,1087.6561C477.20105,1086.0243,474.52832,1084.611,471.84528,1083.2296C471.2055,1082.9264,470.60675,1082.5299,469.93707,1082.2985C469.74255,1082.7277,469.51678,1083.1412,469.29785,1083.558C468.80328,1083.4159,468.17932,1083.9462,468.43103,1084.4432C469.02344,1084.8759,469.6709,1085.2279,470.2832,1085.6346C470.81238,1085.9279,471.21448,1086.4088,471.79193,1086.6222C473.34204,1087.5839,474.88623,1088.5658,476.53467,1089.3551C477.0913,1089.6102,477.63635,1089.9347,478.26093,1089.9867C479.76282,1091.2982,481.18408,1092.7079,482.76172,1093.9325C483.02734,1094.1156,483.2091,1094.3822,483.36212,1094.662C484.10907,1095.9742,485.16113,1097.0748,485.9532,1098.3573C486.48218,1099.2106,486.94305,1100.1481,487.0293,1101.1644C487.12817,1102.9061,487.14807,1104.6937,486.6126,1106.3759C486.32214,1107.2435,486.07343,1108.1542,485.50128,1108.8881C484.74664,1109.8793,483.7296,1110.6395,482.65704,1111.2579C482.3905,1111.4037,482.12592,1111.5721,481.82477,1111.6307C479.33112,1111.8824,476.7613,1111.5282,474.46442,1110.5094C471.83325,1109.3741,469.6056,1107.5219,467.47723,1105.6407C464.09454,1102.6722,460.82825,1099.4557,456.79718,1097.3624C456.54395,1097.8419,456.28656,1098.3192,456.06183,1098.8136C458.48022,1100.0577,460.60913,1101.778,462.66083,1103.5455C464.5957,1105.2252,466.46753,1106.9779,468.4477,1108.6053C470.35632,1110.1683,472.45465,1111.5609,474.79688,1112.3759C474.90033,1113.003,475.05072,1113.6661,474.92896,1114.2965C474.51538,1115.0831,474.39966,1115.9691,474.1654,1116.8158C473.94177,1117.4862,473.41467,1117.986,472.96844,1118.5114C472.59924,1118.9537,472.02887,1119.1342,471.5127,1119.339C470.2906,1119.7516,469.05664,1120.3478,467.73145,1120.201C466.99323,1120.1014,466.25464,1119.9952,465.5251,1119.8483C464.05176,1119.3861,462.64795,1118.7267,461.18268,1118.2413C460.55377,1118.057,460.0501,1117.6227,459.51544,1117.2675C457.3346,1115.7242,455.3203,1113.9608,453.10693,1112.4642C451.88245,1111.6273,450.6612,1110.7823,449.41913,1109.9711C447.88562,1109.1676,446.08838,1109.2699,444.41156,1109.097C444.34515,1109.6329,444.25482,1110.1676,444.2433,1110.7098C445.67804,1110.87,447.18988,1110.7697,448.54346,1111.341C450.55945,1112.6932,452.59534,1114.0236,454.52136,1115.5035C456.11145,1116.7408,457.67792,1118.0128,459.35687,1119.1305C459.44183,1120.3234,459.08435,1121.5052,458.6989,1122.6215C458.20282,1123.0082,457.57397,1123.1901,457.03082,1123.505C455.71307,1124.2748,454.1272,1124.5043,452.62408,1124.3575C451.6432,1124.286,450.88977,1123.6044,450.06305,1123.1542C448.97955,1122.5377,447.96088,1121.8004,446.83087,1121.2719C446.1126,1120.9352,445.33704,1121.2443,444.72906,1121.6576C441.9477,1119.3519,440.05414,1116.2137,437.55658,1113.6371C437.23444,1113.3446,437.2884,1112.8009,436.84113,1112.6166C435.8631,1112.5221,434.8676,1112.4852,433.89514,1112.6361C433.57056,1112.7313,433.24005,1112.6425,432.91614,1112.6078C432.33447,1112.5328,431.74652,1112.5326,431.16193,1112.5109C431.53766,1111.714,431.88837,1110.8878,431.96698,1110.0021C432.09576,1108.5726,431.96478,1107.0914,431.4052,1105.7589C431.16577,1105.1764,430.85345,1104.629,430.53088,1104.0902C430.06464,1103.3322,429.65253,1102.5082,428.9276,1101.9579C427.75488,1101.035,426.34302,1100.2565,424.80908,1100.2836C423.81903,1100.2758,422.80096,1100.267,421.8506,1100.586C421.31543,1100.7535,420.813,1101.0026,420.30743,1101.2401C419.69482,1099.7535,418.96515,1098.2924,417.91772,1097.0587C416.81818,1095.7528,415.31525,1094.7145,413.60364,1094.4457C412.0722,1094.2286,410.52704,1094.6263,409.1009,1095.1649C408.19452,1095.5472,407.2417,1095.9042,406.50354,1096.5782C406.02264,1097.0094,405.70172,1097.5785,405.35388,1098.1139C402.46844,1095.8529,399.43976,1093.6232,395.89856,1092.518C395.3346,1092.3055,394.65564,1092.3146,394.23346,1091.8304C393.87897,1091.7948,393.62958,1092.1229,393.38953,1092.3356C392.96893,1092.7521,392.72552,1093.3055,392.55676,1093.8661C391.7187,1094.202,390.88812,1094.5585,390.0468,1094.8844C389.9447,1094.5873,389.8911,1094.278,389.90784,1093.9669C389.9229,1091.9227,389.91565,1089.8802,389.92688,1087.8365C389.9242,1087.3617,390.04816,1086.8998,390.12585,1086.4347C391.23175,1080.2833,392.33636,1074.1312,393.44122,1067.9803C393.7155,1066.2142,394.27667,1064.5133,394.7038,1062.7831C395.1612,1061.2235,395.42938,1059.6207,395.76337,1058.0336C395.97125,1056.8927,396.34692,1055.7933,396.6515,1054.6759C397.11255,1053.1124,397.50525,1051.5282,398.0429,1049.9891C398.38684,1048.9508,398.7389,1047.9147,399.08405,1046.8763 Z"/> </g> <g style="fill:rgb(255,193,161); fill-opacity:1.0; stroke-linejoin: miter"> <path d="M394.88397,1099.9799C394.41595,1097.9586,394.5351,1095.8663,394.5005,1093.8087C398.1978,1094.723,401.32123,1097.025,404.27112,1099.3314C404.83807,1099.7303,405.33044,1100.2391,405.94226,1100.5729C406.35974,1099.7582,406.73895,1098.9161,407.2625,1098.1603C407.6751,1097.5621,408.3606,1097.2557,409.00183,1096.9672C410.35034,1096.379,411.8145,1095.8934,413.30585,1096.0419C414.75507,1096.2596,415.98505,1097.2147,416.86847,1098.3446C418.08325,1099.8839,418.79993,1101.7374,419.38513,1103.59C420.64325,1102.9701,421.83374,1102.0865,423.2666,1101.9366C424.04034,1101.881,424.82733,1101.8563,425.59473,1101.9869C426.4411,1102.2225,427.2237,1102.6666,427.9038,1103.2201C428.45032,1103.6364,428.72467,1104.2848,429.08667,1104.8483C429.6726,1105.7933,430.1985,1106.8143,430.31757,1107.9381C430.4602,1109.0885,430.44336,1110.3168,429.893,1111.368C429.41138,1112.3488,428.8167,1113.2682,428.31854,1114.2401C429.7796,1114.1869,431.24823,1114.0658,432.70758,1114.212C434.25134,1114.378,435.6742,1115.0458,437.03986,1115.7428C437.46344,1115.838,437.68774,1116.2264,437.9547,1116.5314C439.6579,1118.5795,441.23553,1120.7596,443.2436,1122.5306C441.00494,1123.8917,438.39465,1124.9869,435.72046,1124.671C435.1311,1124.6029,434.53027,1124.611,433.94836,1124.5043C433.08655,1123.89,432.70398,1122.8375,431.9757,1122.0924C431.23053,1121.3268,430.3423,1120.7174,429.44775,1120.1405C428.44147,1119.535,427.4071,1118.9166,426.24908,1118.6561C424.5948,1118.3607,422.90637,1118.1945,421.30487,1117.6581C420.82355,1117.4847,420.30585,1117.2968,419.9884,1116.8717C419.34302,1116.0538,418.56555,1115.3402,418.00214,1114.4579C417.47766,1113.6415,417.50433,1112.6305,417.43365,1111.6996C417.40454,1110.8954,417.26178,1110.1029,417.17584,1109.3055C415.99854,1109.8607,415.1488,1110.9188,414.07703,1111.642C413.789,1111.818,413.46643,1112.0233,413.11267,1111.945C412.2276,1111.8212,411.33752,1111.7054,410.47748,1111.4628C409.26117,1111.1373,408.20258,1110.4293,407.09338,1109.8617C406.5539,1109.6034,406.16144,1109.1049,406.04645,1108.5165C405.55597,1106.2606,405.27435,1103.9576,405.1927,1101.6488C403.79144,1102.1759,402.4458,1103.0912,400.88977,1102.9813C399.1458,1102.8483,397.497,1102.2023,395.8907,1101.5521C395.2586,1101.3004,395.05627,1100.5717,394.8841,1099.9799 Z"/> </g> <g style="fill:rgb(255,193,161); fill-opacity:1.0; stroke-linejoin: miter"> <path d="M423.67413,1038.4701Q423.03424,1038.6534,422.6955,1038.8417Q421.80023,1039.1962,415.97577,1042.7513Q409.8192,1045.7472,409.6079,1046.0724Q409.62695,1046.1366,410.39612,1046.1979Q412.9505,1046.3195,413.6366,1046.3197Q426.14496,1046.1202,426.2041,1046.2145Q429.07715,1046.0211,431.156,1045.1962 Z"/> </g> <g style="fill:rgb(255,193,161); fill-opacity:1.0; stroke-linejoin: miter"> <path d="M390.3678,1094.0419Q390.9361,1094.3646,391.42767,1094.5638Q394.89465,1095.765,396.15485,1096.3453L398.70966,1097.5516Q399.3507,1097.8177,399.3015,1097.6945Q399.41797,1097.4698,399.48175,1096.0065Q399.52502,1095.6283,399.4087,1093.0931Q399.55957,1090.0841,399.62512,1090.1146L399.62292,1088.9054Q399.60352,1085.944,399.15894,1085.1781 Z"/> </g> <g style="fill:rgb(255,255,255); fill-opacity:0.99607843; stroke-linejoin: miter"> <path d="M492.37817,1023.00714L507.22955,1017.28217L522.0809,1011.55725Q534.1127,1042.7689,546.1445,1073.9806Q531.2932,1079.7057,516.442,1085.4308Q504.41003,1054.2189,492.37817,1023.00714"/> </g> <g style="fill:rgb(255,255,255); fill-opacity:0.99607843; stroke-linejoin: miter"> <path d="M405.50928,1036.0841L390.2082,1031.7014L374.9071,1027.3186Q365.69598,1059.4755,356.4848,1091.6329Q371.78577,1096.0157,387.08685,1100.399Q396.2981,1068.2416,405.50928,1036.0841"/> </g> <g style="fill:rgb(26,26,26); fill-opacity:0.99607843; stroke-linejoin: miter"> <path d="M340.80225,1100.2882L340.80225,1100.2885L340.8022,1100.2887L340.80225,1100.2882"/> </g> <g style="fill:rgb(0,0,0); fill-opacity:1.0; stroke-linejoin: miter"> <path d="M748.21344,934.50793L679.16327,956.46014L506.3355,1011.4045Q507.21655,1014.17615,508.09772,1016.94745L508.09766,1016.94836L508.09167,1016.94977Q518.25104,1048.8846,528.4037,1080.8195L528.4037,1080.8207Q528.40063,1080.8207,528.3976,1080.8219Q529.4403,1084.0804,530.4762,1087.3385Q646.1246,1050.5723,761.7728,1013.8053L761.78204,935.2766C761.78204,934.85205,761.4381,934.50793,761.01337,934.50793L748.21344,934.5091L748.21344,934.50793 Z"/> </g> <g style="fill:rgb(0,0,0); fill-opacity:1.0; stroke-linejoin: miter"> <path d="M315.57568,1086.4159L315.86,1086.4032L316.14423,1086.3907Q316.14423,1086.3907,316.14423,1086.3907Q315.86,1086.4032,315.57568,1086.4161Q315.57568,1086.4161,315.57568,1086.4159"/> </g> <g style="fill:rgb(90,228,121); fill-opacity:1.0; stroke-linejoin: miter"> <path d="M376.2271,1059.8729L376.2271,1059.8732L376.2271,1059.8734L376.2271,1059.8732L376.2271,1059.8729L376.2271,1059.8732L376.2271,1059.8734Q376.2271,1059.8732,376.2271,1059.8729"/> </g> <g style="fill:rgb(0,0,0); fill-opacity:1.0; stroke-linejoin: miter"> <path d="M97.57909,934.50745C97.37518,934.50745,97.17957,934.5883,97.03542,934.73254C96.89124,934.8767,96.81028,935.07227,96.81028,935.2762L96.81034,1005.1723L368.05847,1100.7606L394.54095,1025.6108L136.01581,934.5075L97.57909,934.50745 Z"/> </g> <g style="fill:rgb(0,0,0); fill-opacity:1.0; stroke-linejoin: miter"> <path d="M711.92,946.6398L765.2484,927.9864L818.5767,909.33295Q816.0178,953.96497,813.4588,998.59686Q771.099,1011.31476,728.7391,1024.0326L711.92,946.6398"/> </g> <g style="fill:rgb(0,0,0); fill-opacity:1.0; stroke-linejoin: miter"> <path d="M211.9619,1044.04L136.9796,1018.944L61.997284,993.84814Q52.912193,947.0787,43.827087,900.3091Q125.96498,930.7518,208.10289,961.1942L211.9619,1044.04"/> </g> </g> </svg>