<?xml version='1.0' encoding='utf-8'?>
<svg xmlns="http://www.w3.org/2000/svg" version="1.1" width="600px" height="976px" viewBox="0 0 600 976"> <g id="layer1"> <g style="fill:rgb(0,0,0); fill-opacity:1.0; stroke-linejoin: miter"> <path d="M491.43683,296.68475C489.7685,297.38663,488.76407,299.02625,488.79398,301.02948C488.83807,303.9803,491.06436,306.19446,493.32867,305.51074C495.1618,304.96893,496.19376,303.35593,496.18683,301.08157C496.18198,298.94254,495.40338,297.57324,493.76816,296.8666C492.48734,296.31708,492.37866,296.29163,491.43683,296.68475 Z"/> </g> <g style="fill:rgb(0,0,0); fill-opacity:1.0; stroke-linejoin: miter"> <path d="M501.04993,296.73077C499.57153,297.45688,498.78162,298.9579,498.81195,300.98825C498.8374,302.69373,499.23056,303.63553,500.35587,304.64764C500.93243,305.18057,501.36758,305.3095,502.53168,305.2921C503.77692,305.2735,504.10016,305.16034,504.7939,304.47308C505.83432,303.42856,506.2214,302.1502,506.05853,300.31137C505.77084,297.36426,503.3352,295.6407,501.04993,296.73077 Z"/> </g> <g style="fill:rgb(0,0,0); fill-opacity:1.0; stroke-linejoin: miter"> <path d="M451.603,301.9098C451.123,302.40436,449.0438,304.60156,447.0187,306.79797C438.46426,315.99658,430.869,324.15204,428.09726,327.1177C423.7263,331.78613,421.4887,334.2565,421.25156,334.69327C420.67175,335.75797,423.43344,339.3721,424.81406,339.35147C425.65326,339.33896,425.27994,339.72363,435.7265,328.49307C442.06882,321.6561,445.37354,318.1138,451.07697,312.0175C456.0613,306.71716,456.64597,305.9773,456.63544,305.27344C456.5821,303.51425,454.5408,300.99945,453.1602,301.02008C452.7812,301.02576,452.11008,301.41486,451.603,301.9098 Z"/> </g> <g style="fill:rgb(0,0,0); fill-opacity:1.0; stroke-linejoin: miter"> <path d="M485.78308,307.925C485.70465,308.11575,485.7362,312.0414,485.83203,316.64316L486.0386,325.03397L497.6792,324.86014L509.31982,324.6863L509.42282,322.5186C509.54764,319.99857,509.19733,320.11212,513.43665,321.13193C515.44714,321.58926,516.07104,321.66116,516.2294,321.38803C516.3352,321.22397,516.40594,318.70474,516.3631,315.8352C516.3013,311.69333,516.2034,310.5846,515.90405,310.4808C515.7133,310.40237,514.2301,310.80365,512.64056,311.3419C511.05142,311.90714,509.62192,312.2805,509.51242,312.2009C509.37585,312.1217,509.25058,310.9863,509.23038,309.63272L509.19443,307.22336L497.5538,307.39722C488.4308,307.53345,485.86023,307.653,485.78308,307.925 Z"/> </g> <g style="fill:rgb(0,0,0); fill-opacity:1.0; stroke-linejoin: miter"> <path d="M527.00385,330.298C526.9254,330.48874,527.02246,338.80002,527.1987,348.78885L527.55084,366.9253L539.6787,366.74423L551.80664,366.5631L551.67725,357.90036C551.60614,353.1358,551.482,344.82498,551.374,339.41116L551.2277,329.61136L539.181,329.79123C529.7873,329.93152,527.0814,330.05313,527.00385,330.298 Z M547.25806,344.8339L547.4339,356.60986L539.58325,356.72708L531.73267,356.8443L531.4796,345.3403C531.3579,339.00604,531.3053,333.67267,531.3838,333.48184C531.4609,333.20993,533.1926,333.1299,539.2844,333.0931L547.0822,333.0579L547.25806,344.8339 Z"/> </g> <g style="fill:rgb(0,0,0); fill-opacity:1.0; stroke-linejoin: miter"> <path d="M445.87247,364.21884C438.8081,364.40555,432.98935,364.60083,432.96268,364.6283C432.05603,365.56247,431.88474,368.59766,432.6383,370.10272L433.11264,371.04333L452.33362,370.78336C462.9185,370.62534,472.7445,370.42444,474.2052,370.32132C476.61252,370.15002,476.9362,370.06393,477.41415,369.43402C477.86588,368.85864,477.91394,368.45175,477.80887,366.8558C477.7361,365.61133,477.53247,364.66666,477.20074,364.21133L476.72964,363.48727L467.7157,363.67603C462.78952,363.80374,452.93683,364.0321,445.87247,364.21884 Z"/> </g> <g style="fill:rgb(0,0,0); fill-opacity:1.0; stroke-linejoin: miter"> <path d="M527.7148,405.1018L527.9068,417.96066L536.10974,417.86523C548.5088,417.70715,552.6499,417.5912,552.8899,417.34387C552.9966,417.234,552.965,411.49405,552.8345,404.5642L552.5657,392.0044L540.05756,392.10992L527.52277,392.24295L527.7148,405.1018 Z M538.24097,401.01843C539.3578,401.46207,541.37317,402.2443,542.70734,402.73883C544.069,403.26004,545.40356,403.78165,545.703,403.88547C546.00275,404.0164,546.4654,404.17197,546.73737,404.2491C547.30865,404.4301,547.3745,405.21436,546.806,405.22287C546.5895,405.2261,546.185,405.34045,545.9163,405.47986C545.2985,405.814,543.9001,406.45764,542.12396,407.1882C541.3162,407.49814,540.1595,408.00275,539.56793,408.28235C537.5247,409.2606,536.39417,409.7107,536.0152,409.71637C535.7174,409.7208,535.6228,408.82864,535.5654,404.98456C535.5076,401.1134,535.57587,400.24588,535.87366,400.2415C536.0902,400.23825,537.1517,400.60147,538.24097,401.01843 Z"/> </g> <g style="fill:rgb(0,0,0); fill-opacity:1.0; stroke-linejoin: miter"> <path d="M423.7911,399.58655C423.04483,400.38293,422.56967,401.20233,422.36603,402.07184L422.06058,403.37613L424.75436,406.07074C426.26593,407.56448,428.71246,410.01904,430.22482,411.56696C431.7372,413.11484,434.7611,416.15646,436.96036,418.37103C445.73032,427.22977,446.9675,428.4839,447.24307,428.80472C447.40793,428.96472,449.05768,430.6459,450.92642,432.48636C454.4166,435.9272,454.93542,436.2173,456.14392,435.54944C456.86923,435.15952,458.245,432.99988,458.41992,432.02246C458.62152,431.0176,458.42838,430.77682,453.89294,426.24133C447.15817,419.49136,443.99646,416.28934,437.75543,409.96524C426.4283,398.49115,426.29092,398.35782,425.56,398.36874C425.12683,398.3752,424.51025,398.79056,423.7911,399.58655 Z"/> </g> <g style="fill:rgb(0,0,0); fill-opacity:1.0; stroke-linejoin: miter"> <path d="M502.13895,405.91696C501.40964,406.03616,500.0597,406.30002,499.1684,406.44873C494.578,407.30246,491.66116,407.80634,489.39206,408.1652C488.74356,408.25607,488.12415,408.48196,487.96457,408.6739C487.80496,408.86578,487.71732,412.06223,487.7593,416.69183L487.79294,424.38123L487.11536,424.33722C485.13593,424.15015,482.73712,426.70413,482.4232,429.25412C482.08423,431.93976,483.54688,433.78632,485.9021,433.75107C487.36395,433.72925,488.57123,432.9802,489.5506,431.47632L490.31833,430.3005L490.4257,421.1739C490.52304,413.18463,490.58688,412.01932,490.96387,411.87833C491.20627,411.7935,492.42206,411.61288,493.69238,411.4585C494.96268,411.3042,497.15143,411.00073,498.5563,410.7902C499.96115,410.5797,501.4206,410.39545,501.7996,410.38974L502.47598,410.35257L502.58914,417.93253L502.70236,425.51248L501.7573,425.68906C499.02997,426.1901,497.19522,428.4378,497.23767,431.28027C497.28296,434.31226,499.90884,436.08722,502.40707,434.7502C503.50812,434.13803,504.757,432.54895,505.06445,431.38C505.24423,430.72748,505.27856,425.77182,505.1617,417.9483L504.97696,405.57675L504.24646,405.61472C503.8137,405.6483,502.8949,405.7703,502.13895,405.91696 Z"/> </g> <g> <g style="fill:rgb(0,0,0); fill-opacity:1.0; stroke-linejoin: miter"> <path d="M403.7268,345.7403C402.81277,346.09448,400.55258,346.9909,398.74973,347.72263C394.3035,349.53702,386.17453,352.72028,383.52716,353.70557C380.11078,355.01483,375.15723,356.97168,374.6305,357.23697C374.36703,357.3697,372.58777,358.07596,370.66315,358.8124C368.73853,359.549,364.48145,361.20944,361.16266,362.51468C351.44577,366.2988,335.59296,372.40454,324.2361,376.71854C320.4579,378.13977,317.16275,379.4198,316.89923,379.5524C315.8205,380.05972,306.59796,383.38434,306.1834,383.40085C305.89075,383.41266,305.68793,383.2253,305.6255,382.88574C305.565,382.59512,305.18152,382.1708,304.78168,381.9424C304.03326,381.55728,303.98444,381.5593,303.2472,382.0527C302.4862,382.57172,302.48816,382.62054,302.6814,383.78525C302.87354,384.9257,302.85205,384.99985,302.36426,385.01935C302.02295,385.03296,301.64532,384.75494,301.30695,384.23114C300.55176,383.06442,299.9392,383.01566,298.9803,384.07996C298.18335,384.918,297.17065,385.2516,296.83325,384.7521C296.75427,384.60867,296.21375,384.53262,295.62842,384.55603C295.06757,384.57846,294.378,384.43506,294.1018,384.25082C293.39847,383.76593,293.10776,383.8264,292.07376,384.84476C291.29825,385.60867,290.8904,385.79605,289.53152,386.02136C288.48776,386.1853,287.76584,386.4584,287.5093,386.76175C286.8773,387.4465,285.45883,390.459,285.48135,391.01984C285.49307,391.31247,285.40714,391.6091,285.26382,391.68817C284.9789,391.8948,285.056,394.4323,285.35355,394.5425C285.452,394.56302,285.658,395.4341,285.7712,396.43106C286.02768,398.57034,286.7477,401.3018,287.30075,402.30554C287.53586,402.68704,288.01675,403.1075,288.38858,403.2392C289.0566,403.45667,289.99026,404.81152,290.7737,406.6855C290.96487,407.1908,291.77847,407.98883,292.9373,408.87073C295.05222,410.44714,294.9429,410.15842,294.71378,414.19794C294.48276,418.18872,293.6088,421.9854,292.60684,423.19794C291.35037,424.7627,291.15823,425.4544,291.3066,427.93997L291.44705,430.23056L290.60715,431.21674C290.1409,431.7728,289.63748,432.62347,289.4609,433.09473L289.12845,433.93848L286.7578,433.91116C285.46228,433.88965,283.33875,433.9259,282.07056,433.97653C280.80237,434.0273,279.43182,433.95993,279.01123,433.83023C278.61523,433.69955,277.0261,432.444,275.4809,431.06473C272.89685,428.74982,271.71155,427.82025,268.57324,425.69846C266.16278,424.06076,265.0243,423.0803,265.0077,422.66565C264.99597,422.37305,265.39697,422.01505,266.06622,421.64627C266.831,421.22482,267.18408,420.89316,267.26318,420.4259C267.4602,419.24545,267.5304,419.1695,268.32935,418.99084C268.76447,418.8758,269.38776,418.58215,269.7193,418.32468C270.2872,417.86234,270.3068,417.73944,270.14084,415.4254C269.9866,412.79346,269.94382,412.94177,271.72787,410.52536C272.3074,409.74493,272.41483,409.37424,272.3259,408.37634C272.25558,407.23105,272.15225,407.08865,270.60306,405.61176C267.9116,403.0569,267.56235,402.26486,268.02866,399.8768C268.29404,398.57156,268.71432,398.09058,269.64108,398.05356C270.00687,398.03894,270.48593,397.79987,270.71902,397.52185C270.95224,397.2438,271.38242,397.00674,271.6508,396.996C271.9434,396.98428,272.28085,396.873,272.39896,396.77057C272.75388,396.48773,272.54227,393.0277,272.12186,392.2872C271.62326,391.42776,271.8799,390.51373,272.7607,389.9412C273.73703,389.3158,274.41898,388.04272,274.3751,386.94537C274.3447,386.18927,274.11172,385.8566,272.6143,384.4508C271.65152,383.58572,270.06436,382.379,269.06436,381.8082C267.16122,380.6387,266.7241,380.0944,266.6675,378.67996C266.61197,377.28976,264.61008,374.26764,263.39264,373.75455C262.29913,373.28528,261.41125,372.46597,260.83002,371.3655C260.6164,370.90994,259.51697,369.6838,258.40002,368.62924C256.4693,366.77673,256.3922,366.68207,256.47717,365.75055C256.5396,364.86865,256.4342,364.6775,255.10852,363.2893C254.3183,362.46588,253.43445,361.7441,253.11462,361.68365C252.7937,361.5987,252.54297,361.43787,252.5362,361.26715C252.52545,360.99884,250.91571,360.4526,250.18396,360.4819C249.98889,360.48972,249.81238,360.35013,249.8045,360.15506C249.79681,359.9599,249.39874,359.78046,248.7608,359.70828C248.1958,359.63315,247.55414,359.46353,247.35211,359.3006C246.57068,358.6968,237.5639,359.47238,234.79059,360.36487C234.40515,360.5025,233.3653,360.76407,232.49316,360.9454C229.63599,361.57263,223.46783,364.31107,222.89325,365.21338C222.82404,365.31384,222.3988,365.67285,221.94806,366.00842C221.49731,366.34406,220.03809,367.72156,218.69861,369.04526C216.67944,371.08017,216.14478,371.76102,215.45013,373.3279C214.7558,374.8944,214.63068,375.43686,214.70398,376.65524C214.80157,378.4833,215.05438,379.30374,215.85431,380.37097C216.39764,381.1308,216.45807,381.42166,216.59186,384.76273C216.75488,388.22485,216.98206,390.24313,217.75372,395.48843C218.11688,397.84335,218.28442,398.37405,219.07068,399.7105C219.75073,400.8313,220.4862,402.7317,220.51453,403.4388C220.56238,404.63388,222.49103,407.04822,223.65094,407.34387C225.2301,407.74478,226.82813,408.609,226.84564,409.04794C226.87585,409.80402,224.55902,410.50735,221.89783,410.54068C218.82123,410.566,216.49652,411.07425,216.1571,411.7474C215.84198,412.41946,216.07813,417.09995,216.54443,418.98666C216.69556,419.71335,217.07428,420.6263,217.38165,420.98047C217.84589,421.59708,217.883,421.91312,217.8352,424.38226C217.7738,428.95233,217.9524,431.58337,218.46057,432.68665C219.05084,434.0066,219.11615,436.8618,218.58856,440.1562C217.9292,444.43277,217.88525,448.22076,218.4278,454.4523C218.72046,458.10452,219.09906,460.84967,219.47644,462.34903C219.77118,463.6074,220.45313,466.60895,220.93994,469.00784C221.45123,471.40555,222.01111,473.80154,222.15442,474.33316C222.71436,476.11835,223.81195,479.12775,224.15332,479.72482C224.3631,480.0828,227.32391,486.92596,230.77142,494.9465L237.02264,509.54776L237.23926,514.3512C237.43054,519.1312,237.43152,519.15564,236.80237,520.5242C236.46582,521.27057,235.94489,522.2927,235.67072,522.7679C235.39673,523.243,234.505,525.37933,233.68567,527.48846C232.31317,531.0363,232.14545,531.72705,231.42743,536.37244C231.02557,539.1487,230.49597,542.39417,230.27655,543.62427C230.05609,544.83014,229.74487,546.8211,229.59766,548.0239C229.42493,549.20325,229.22803,550.3836,229.11475,550.60803C228.71002,551.4791,228.16473,555.5557,227.77472,560.4567C227.55414,563.4944,227.08997,568.37384,226.73578,571.7346C226.6294,572.7403,226.55627,575.1859,226.58655,577.1634C226.65509,581.3132,226.52234,581.04974,229.23334,582.26025C231.0,583.069,231.39502,583.17535,234.47357,583.8093L235.97583,584.11566L236.26971,587.79224C236.62286,592.34607,236.82391,600.42316,236.7987,607.72797C236.7735,610.7577,236.89063,617.3481,237.0672,622.3729C237.35516,630.1783,237.47223,631.883,237.92389,634.0145C238.4068,636.316,238.44287,636.6075,238.11407,638.1594C237.9552,639.0697,237.72705,640.6911,237.62354,641.76965C237.5202,642.8491,237.36609,644.4915,237.28198,645.4475C237.1972,646.37915,237.05481,648.3147,236.96515,649.735C236.87537,651.1553,236.74084,653.2858,236.66766,654.5098C236.59344,655.7101,236.51556,658.0333,236.50696,659.646C236.49792,661.25867,236.36151,663.34033,236.2044,664.29913C235.95184,665.9215,235.862,666.73126,235.38214,671.22046C235.29828,672.1762,235.22803,673.4739,235.2514,674.0593C235.27496,674.6444,235.22028,675.72144,235.12762,676.4579C235.03485,677.1946,234.86914,679.15497,234.79022,680.8439C234.7113,682.5323,234.58533,684.8822,234.51215,686.10645C234.20996,690.14905,233.9154,695.6079,233.72705,700.0613C233.54962,704.17194,233.35455,706.01184,232.90295,707.54425C232.47668,709.1003,231.89923,711.76117,231.68848,713.21124C231.46118,714.8566,231.85815,718.06494,232.45154,719.4582C232.82983,720.3711,232.97339,725.788,232.62708,727.5118C232.28369,729.3088,232.29352,729.5525,232.74823,735.42126C233.13647,740.2422,233.30328,740.7484,234.40076,740.7046C234.98602,740.681,234.9881,740.7299,235.08069,743.04663C235.16864,745.2413,235.25354,745.53125,235.9588,746.6755C236.63763,747.772,236.96454,748.0033,238.53021,748.6733C240.84027,749.6311,242.31812,749.9385,248.82373,750.7529C255.28052,751.5696,256.70673,751.80554,258.24615,752.4277C258.9154,752.6697,259.5837,752.88696,259.77884,752.8793C259.9495,752.8724,260.22452,753.0323,260.40305,753.22076C260.58157,753.4089,261.00302,753.5631,261.36887,753.54846C261.73465,753.5339,262.22818,753.66064,262.50327,753.82056C263.40457,754.3708,267.39545,755.82306,269.1942,756.21545C274.09903,757.3137,283.67938,758.054,290.26627,757.83936C292.97412,757.7555,293.67834,757.654,295.1953,757.1043C296.95224,756.448,297.5883,755.8606,297.90616,754.6511C297.9686,754.3801,298.2701,753.36664,298.57443,752.4261C298.87766,751.4612,299.13327,750.52264,299.1246,750.30334C299.09628,749.5961,298.0789,747.976,296.85657,746.7301C293.97766,743.76776,292.84802,743.00684,288.37253,741.0364C287.42722,740.6099,286.20578,739.9993,285.6294,739.6314C284.10065,738.66693,281.2755,737.0458,280.0045,736.41254C279.3821,736.12,278.65353,735.6117,278.37155,735.28107C278.08963,734.9504,277.17172,733.98517,276.30728,733.1406C275.44302,732.29584,274.64706,731.3265,274.53683,731.01306C274.42648,730.70013,274.05103,729.86035,273.70667,729.19025C273.01794,727.8498,272.29303,724.9963,271.91345,722.2268C271.71448,720.91583,271.76123,720.2545,272.04327,719.3638C272.39056,718.27515,272.40613,718.0546,271.98077,716.5818C271.3506,714.2619,271.4364,713.96533,272.74554,713.71765C274.22443,713.4385,277.1002,712.66394,277.69913,712.37146C278.65805,711.9177,279.91257,711.52545,280.47348,711.5032C280.98557,711.48254,282.36105,711.0611,285.68646,709.92664C286.67474,709.59375,287.219,709.157,288.5974,707.5874C289.53284,706.5482,290.3902,705.39044,290.49857,705.04425C290.78342,704.22687,289.9679,702.15875,289.32495,701.9646C289.07825,701.90106,288.87543,701.7136,288.8695,701.5674C288.86267,701.39703,288.30072,700.78424,287.6413,700.17535C285.86682,698.561,284.8805,698.3319,277.9769,697.9484C274.30414,697.72925,274.5061,697.8923,273.7306,694.3812C273.13538,691.718,273.06122,691.08594,273.17627,688.4676C273.2845,686.28925,273.41913,685.3804,273.74207,684.9031C273.97223,684.55206,274.28827,683.9044,274.4171,683.4596C275.15076,681.03644,275.88214,670.01514,275.6704,664.72296C275.55524,661.84534,276.08295,658.5508,277.54517,652.97205C277.79688,651.93604,278.23486,650.0619,278.47668,648.7823C278.71863,647.5024,279.09717,645.9728,279.29218,645.3542C279.5116,644.7349,280.0735,642.29425,280.54163,639.9548C281.00903,637.5914,281.6801,634.8285,282.0293,633.78864C282.37848,632.7488,282.78912,630.8027,282.93054,629.45355C283.5841,623.19867,285.1916,614.53595,286.24225,611.48956C286.56995,610.5238,287.18738,608.25183,287.62732,606.42664C289.31866,599.2509,290.46783,594.393,290.8463,592.8631C291.055,591.9756,291.3457,590.69385,291.4902,590.02826C292.31815,585.6961,292.38083,585.425,294.30435,579.168C294.9541,577.0902,294.80957,577.1448,299.58755,576.90497C302.29367,576.77216,303.24088,576.6365,304.41928,576.17413C308.19626,574.72833,310.29578,571.6398,312.09735,564.77704C314.19843,556.8521,314.4423,555.0104,314.3456,547.71063C314.27634,541.09375,314.25192,540.4841,313.60608,537.16345C313.0178,534.06036,312.8616,530.76904,313.11533,526.7284C313.20013,525.1863,313.23706,522.44904,313.18933,520.64325C313.09753,516.5188,312.7541,515.2623,309.10187,505.1738C308.0296,502.18768,306.76736,498.72073,306.32632,497.46823C305.8854,496.21564,305.2299,494.48328,304.87772,493.6179C303.82028,490.99777,303.36862,489.47693,303.1461,487.58044C302.72757,484.4462,301.10623,476.88995,300.29642,474.35757C299.98917,473.39273,299.2565,471.56558,298.6683,470.2945C298.07916,468.9991,297.58936,467.74863,297.57953,467.50473C297.562,467.06567,298.1424,466.92023,301.44843,466.5193C304.43835,466.15552,310.01334,465.0774,311.89597,464.51355C314.62354,463.6961,321.2922,461.25522,322.82565,460.50998C323.4967,460.19003,330.29108,457.23126,332.90933,456.12488C333.58145,455.8293,335.52954,455.06735,337.2387,454.4373C338.9712,453.78168,341.7767,452.47256,343.47205,451.50092C345.83752,450.1849,346.91852,449.72635,348.0345,449.5351C349.78247,449.26978,351.93552,448.1334,352.34033,447.2622C352.4974,446.91394,352.8437,446.4115,353.12677,446.15588C353.38507,445.90134,353.67776,445.27905,353.73145,444.78836C353.8094,444.29657,353.93524,443.77856,354.02783,443.6529C354.30487,443.25095,354.4825,440.3614,354.3625,438.58304C354.24927,436.97537,354.24832,436.95105,355.0999,436.25742C355.57196,435.8477,357.42444,434.52786,359.20673,433.28397L362.43854,431.0295L362.50397,429.61017L362.56934,428.1909L364.12122,427.2982C367.34436,425.435,369.1743,423.55426,371.0395,420.10873C371.6775,418.9595,372.29208,417.83572,372.40515,417.61136C372.5426,417.386,372.90454,416.66312,373.244,415.99002C373.55923,415.31802,374.34244,414.13858,374.92288,413.3825C376.17844,411.79333,379.9271,407.8083,380.17093,407.79858C380.46356,407.78687,382.00598,405.42902,382.05862,404.91403C382.07242,404.64468,382.00204,404.1101,381.86447,403.7248C381.6977,403.2186,381.75418,402.80096,382.04788,402.203L382.4545,401.3808L385.16553,401.37C386.65518,401.35938,390.34454,401.38254,393.37338,401.38364C396.40335,401.40884,400.62918,401.4107,402.77832,401.39804C404.92734,401.3854,408.64108,401.40768,411.06143,401.45752C413.4562,401.48386,415.43552,401.50223,415.48227,401.4515C415.55154,401.35114,405.61057,345.20087,405.5101,345.13153C405.46045,345.1091,404.66522,345.38522,403.7268,345.7403 Z M329.69818,401.513C336.99704,401.39197,338.78113,401.41827,339.10992,401.6983C339.36172,401.88364,339.88742,402.2046,340.30975,402.38315C340.73325,402.5859,341.54678,403.38385,342.14288,404.2394C342.7135,405.07156,343.4354,406.0197,343.71732,406.35037C344.43634,407.22546,345.72888,409.6164,346.14545,410.86993C346.3405,411.4728,346.58356,412.04935,346.68683,412.19165C346.99512,412.57016,348.02814,415.8021,348.0536,416.4362C348.0711,416.87512,347.8146,417.1785,346.97858,417.6517C346.38257,418.0175,345.34467,418.9383,344.69202,419.72162C343.33908,421.31476,342.48254,421.88638,339.6438,422.97702C337.3104,423.87646,334.9322,424.8754,333.61536,425.5388C333.08844,425.8042,332.05524,426.23633,331.33356,426.50943C329.83997,427.03336,327.72906,427.99722,325.88635,428.95032C325.1917,429.2956,323.627,429.87115,322.3941,430.18918C318.5496,431.17358,318.84222,431.16187,318.80908,430.3326C318.7925,429.91812,319.01105,429.2742,319.33688,428.87036C320.242,427.68604,320.6156,426.64523,320.4381,425.87064C320.32404,425.4599,320.3825,425.09122,320.5249,424.9877C320.6673,424.88437,320.76678,424.31854,320.74442,423.75757C320.71017,422.90414,320.60297,422.66415,320.2332,422.58118C319.83914,422.4992,319.72794,422.16174,319.52106,420.65558L319.2771,418.83325L316.91452,416.55844L314.55075,414.25916L314.35953,411.9219C314.2219,410.31522,314.0112,409.32214,313.69522,408.74857C313.09128,407.69794,311.54025,406.17227,310.8213,405.90796C310.3013,405.7333,310.24582,405.5645,310.17935,403.90607C310.1179,402.3697,310.17935,402.07416,310.5412,401.962C310.97632,401.8469,315.36896,401.7443,329.69818,401.513 Z M357.35287,401.6035L358.30975,401.7117L356.91595,402.89114C356.1355,403.53296,354.85278,404.43927,354.06543,404.9105C353.27814,405.38168,352.4227,405.97766,352.14084,406.25766C351.27258,407.14737,350.23846,406.9444,348.86807,405.65588C348.20764,405.0227,347.48956,404.17194,347.3023,403.76422C347.11505,403.35638,346.8819,403.02383,346.7599,403.02863C346.63806,403.03354,346.5268,402.69608,346.5112,402.30588L346.48178,401.57422L351.43842,401.52255C354.1493,401.51175,356.81354,401.55173,357.35287,401.6035 Z"/> </g> </g> </g> </svg>